<?xml version="1.0" encoding="UTF-8"?>
<svg width="374px" height="259px" viewBox="0 0 374 259" version="1.1" xmlns="http://www.w3.org/2000/svg" xmlns:xlink="http://www.w3.org/1999/xlink">
    <!-- Generator: Sketch 53.2 (72643) - https://sketchapp.com -->
    <title>Group 193</title>
    <desc>Created with Sketch.</desc>
    <g id="01_Homes" stroke="none" stroke-width="1" fill="none" fill-rule="evenodd">
        <g id="01_Home" transform="translate(-305.000000, -1064.000000)">
            <g id="Group-193" transform="translate(305.000000, 1063.000000)">
                <polygon id="Fill-1" fill="#EAE8EB" points="39.4704 88.196 39.4704 259.907 336.8844 259.907 336.8844 88.196 188.1764 2.341"></polygon>
                <g id="Group-192" transform="translate(0.000000, 0.907000)">
                    <path d="M88.1043,137.533 L137.7633,137.533 L138.4943,138.263 L138.4943,185.001 L137.7663,184.796 C120.9693,184.557 104.1723,184.319 87.3763,184.08 L87.3743,183.541 L87.3743,138.263 L88.1043,137.533 Z" id="Fill-2" fill="#FFFFFF"></path>
                    <path d="M88.1043,138.283 L113.9263,138.283 L125.8443,138.283 L132.7973,138.283 C134.8293,138.283 136.8133,137.734 137.6703,139.32 C138.4493,140.758 137.7443,144.424 137.7443,146.053 L137.7443,151.895 L137.7443,163.58 L137.7443,176.238 C137.7443,178.027 138.4223,181.439 137.7443,183.054 C137.2733,184.172 138.8403,183.428 137.7663,184.046 C136.9783,184.499 132.8803,183.976 131.9523,183.963 C130.0133,183.935 128.0763,183.908 126.1373,183.88 L113.5403,183.701 C109.3403,183.642 105.1423,183.582 100.9433,183.523 C97.4673,183.473 92.5593,184.399 89.3143,183.358 C88.4393,184.116 88.0423,184.177 88.1243,183.541 L88.1243,181.572 C88.1233,179.276 88.1243,176.979 88.1243,174.682 L88.1243,161.886 L88.1243,150.075 C88.1243,147.622 86.9823,139.715 88.6343,138.063 C89.3173,137.38 88.2573,136.319 87.5733,137.002 C85.7383,138.838 86.6243,141.723 86.6243,144.169 L86.6243,157.949 C86.6243,166.659 86.5833,175.37 86.6263,184.08 C86.6283,184.49 86.9683,184.825 87.3763,184.83 C96.0973,184.954 104.8193,185.078 113.5403,185.201 L126.1373,185.38 C129.8373,185.433 134.7603,184.724 138.2933,185.724 C138.7633,185.858 139.2443,185.486 139.2443,185.001 L139.2443,157.738 L139.2443,144.105 C139.2443,142.149 140.2573,138.613 138.4763,137.185 C136.8373,135.872 132.8413,136.783 130.8113,136.783 L116.9063,136.783 L88.1043,136.783 C87.1383,136.783 87.1373,138.283 88.1043,138.283" id="Fill-4" fill="#000000"></path>
                    <path d="M125.5897,173.5965 C123.3417,171.2605 121.0947,168.9245 118.8467,166.5885 C117.4167,167.8615 115.9857,169.1345 114.5567,170.4075 C113.0177,168.3225 111.1867,166.4525 109.1347,164.8695 C108.7967,164.6095 108.4107,164.3435 107.9857,164.3765 C107.5087,164.4145 107.1517,164.8095 106.8457,165.1765 C105.0347,167.3505 103.2237,169.5255 101.4127,171.7005 C100.7697,164.3725 100.5937,157.0045 100.8857,149.6545 L100.1557,149.5995 C108.6577,148.9955 117.1907,148.8045 125.7107,149.0275 C125.6707,157.2175 125.6297,165.4075 125.5897,173.5965 M96.8877,145.9005 L97.4257,146.2105 L97.4257,177.3725 L97.1797,177.6465 C107.6227,176.1465 118.2597,176.0045 128.7377,177.2265 L128.8377,177.3725 C128.8487,166.8965 128.8597,156.4195 128.8697,145.9435 L128.9797,145.8785 C118.3367,144.5495 107.5277,144.5575 96.8877,145.9005" id="Fill-6" fill="#57C1B6"></path>
                    <path d="M117.0946,154.7161 C116.7656,155.9051 117.5926,157.2901 118.7996,157.5481 C120.0066,157.8051 121.3346,156.8641 121.4766,155.6381 C121.6166,154.4121 120.5196,153.1871 119.2846,153.2101 L120.0096,153.1221 C118.8276,152.7651 117.4236,153.5271 117.0946,154.7161" id="Fill-8" fill="#57C1B6"></path>
                    <path d="M49.1034,54.5779 L120.5524,54.5779 L121.6034,55.3899 L121.6034,107.3289 L120.5574,107.1009 C96.3904,106.8359 72.2234,106.5709 48.0564,106.3059 L48.0524,105.7059 L48.0524,55.3899 L49.1034,54.5779 Z" id="Fill-10" fill="#FFFFFF"></path>
                    <path d="M49.1034,55.3279 L98.7204,55.3279 L110.6284,55.3279 C112.6124,55.3279 114.6014,55.2799 116.5834,55.3279 C117.5114,55.3499 118.7484,55.1249 119.6334,55.4799 C121.1864,56.1009 120.8014,56.5999 120.8534,58.3859 C121.0954,66.6939 120.8534,75.0459 120.8534,83.3569 L120.8534,95.3439 C120.8534,97.1199 121.6424,105.9149 121.0184,106.4349 C120.5654,106.8119 117.3364,106.3149 116.6384,106.3079 C114.6784,106.2859 112.7194,106.2649 110.7594,106.2439 C106.5144,106.1969 102.2684,106.1499 98.0234,106.1039 C89.8584,106.0139 81.6944,105.9249 73.5294,105.8349 C69.6104,105.7919 65.6914,105.7489 61.7724,105.7059 C59.8134,105.6849 57.8534,105.6629 55.8944,105.6419 C54.4634,105.6259 50.5324,106.3169 49.4104,105.7919 C47.3154,104.8109 49.5174,106.4199 48.8024,105.7059 C48.4254,105.3309 48.8024,102.4249 48.8024,101.8359 L48.8024,95.0619 L48.8024,81.5149 L48.8024,67.9689 C48.8024,65.4569 47.5054,56.7519 49.4814,55.2249 C50.2344,54.6439 49.4884,53.3399 48.7244,53.9309 C46.5464,55.6119 47.3024,57.4399 47.3024,60.2279 L47.3024,76.6779 C47.3024,86.5529 47.2424,96.4309 47.3064,106.3059 C47.3084,106.7149 47.6474,107.0519 48.0564,107.0559 C60.4654,107.1919 72.8754,107.3279 85.2864,107.4639 C91.1654,107.5289 97.0424,107.5929 102.9214,107.6579 C108.7914,107.7219 115.6824,106.8019 121.4044,108.0529 C121.8754,108.1559 122.3534,107.8379 122.3534,107.3289 L122.3534,72.3699 L122.3534,63.3799 C122.3534,61.4109 123.1904,57.1289 122.3534,55.3899 C121.5564,53.7329 120.3044,53.8339 118.5684,53.8279 C95.4144,53.7449 72.2574,53.8279 49.1034,53.8279 C48.1374,53.8279 48.1364,55.3279 49.1034,55.3279" id="Fill-12" fill="#000000"></path>
                    <path d="M55.9745,58.8372 L55.9685,58.8362 C55.3775,58.7462 54.7465,59.0712 54.4775,59.6052 C54.2085,60.1392 54.3225,60.8402 54.7465,61.2612 C55.1705,61.6822 55.8725,61.7912 56.4045,61.5182 C56.9365,61.2452 57.2575,60.6122 57.1625,60.0222 C57.0685,59.4312 56.5655,58.9302 55.9745,58.8372" id="Fill-14" fill="#EAE8EB"></path>
                    <path d="M60.4911,58.8372 L60.4861,58.8362 C59.8951,58.7462 59.2631,59.0712 58.9951,59.6052 C58.7251,60.1392 58.8401,60.8402 59.2631,61.2612 C59.6881,61.6822 60.3891,61.7912 60.9221,61.5182 C61.4531,61.2452 61.7741,60.6122 61.6791,60.0222 C61.5851,59.4312 61.0821,58.9302 60.4911,58.8372" id="Fill-16" fill="#EAE8EB"></path>
                    <path d="M66.162,60.0218 C66.067,59.4318 65.564,58.9298 64.975,58.8368 L64.969,58.8358 C64.378,58.7458 63.747,59.0718 63.477,59.6048 C63.208,60.1388 63.322,60.8398 63.747,61.2608 C64.171,61.6828 64.872,61.7918 65.404,61.5188 C65.936,61.2458 66.257,60.6118 66.162,60.0218" id="Fill-18" fill="#EAE8EB"></path>
                    <path d="M72.5223,72.8397 C86.2683,73.1897 100.0043,72.9027 113.7243,71.9757 C114.6823,71.9107 114.6893,70.4097 113.7243,70.4757 C100.0043,71.4027 86.2683,71.6897 72.5223,71.3397 C71.5563,71.3147 71.5573,72.8147 72.5223,72.8397" id="Fill-20" fill="#EAE8EB"></path>
                    <path d="M72.161,80.1214 C86.153,80.8054 100.139,80.5734 114.099,79.4124 C115.055,79.3334 115.063,77.8324 114.099,77.9124 C100.139,79.0734 86.153,79.3054 72.161,78.6214 C71.196,78.5744 71.198,80.0744 72.161,80.1214" id="Fill-22" fill="#EAE8EB"></path>
                    <path d="M71.701,89.3821 C85.09,90.1681 98.475,90.0241 111.844,88.9351 C112.799,88.8581 112.807,87.3571 111.844,87.4351 C98.475,88.5241 85.09,88.6681 71.701,87.8821 C70.736,87.8251 70.739,89.3261 71.701,89.3821" id="Fill-24" fill="#EAE8EB"></path>
                    <path d="M71.2733,97.9798 C77.0023,98.5908 82.7113,98.6348 88.4483,98.1048 C89.4013,98.0168 89.4103,96.5158 88.4483,96.6048 C82.7113,97.1348 77.0023,97.0908 71.2733,96.4798 C70.3143,96.3778 70.3223,97.8788 71.2733,97.9798" id="Fill-26" fill="#EAE8EB"></path>
                    <path d="M61.9715,69.1058 C58.9575,68.9138 55.9145,70.0558 54.3795,72.7978 C52.9695,75.3178 53.4405,78.4728 55.5335,80.4638 C60.1275,84.8358 66.8945,80.0828 65.7515,74.3418 C65.5635,73.3958 64.1175,73.7958 64.3055,74.7408 C65.2555,79.5168 59.1765,82.8888 56.0505,78.7698 C54.6195,76.8858 54.7975,74.3768 56.3435,72.5988 C57.7685,70.9588 59.8895,70.4728 61.9715,70.6058 C62.9355,70.6678 62.9315,69.1678 61.9715,69.1058" id="Fill-28" fill="#57C1B6"></path>
                    <path d="M57.7567,74.2166 C58.5757,75.2396 59.3957,76.2626 60.2157,77.2866 C60.5057,77.6486 61.1977,77.5396 61.3937,77.1346 C62.7737,74.2806 64.5537,71.7076 66.7517,69.4236 C67.4217,68.7276 66.3617,67.6656 65.6917,68.3626 C63.4077,70.7356 61.5317,73.4126 60.0987,76.3776 C60.4907,76.3266 60.8837,76.2766 61.2767,76.2256 C60.4567,75.2026 59.6367,74.1786 58.8177,73.1556 C58.2137,72.4026 57.1577,73.4696 57.7567,74.2166" id="Fill-30" fill="#57C1B6"></path>
                    <path d="M61.9715,86.4637 C58.9575,86.2717 55.9145,87.4137 54.3795,90.1557 C52.9695,92.6757 53.4405,95.8307 55.5335,97.8217 C60.1275,102.1937 66.8945,97.4407 65.7515,91.6997 C65.5635,90.7537 64.1175,91.1537 64.3055,92.0987 C65.2555,96.8747 59.1765,100.2467 56.0505,96.1277 C54.6195,94.2437 54.7975,91.7347 56.3435,89.9567 C57.7685,88.3167 59.8895,87.8307 61.9715,87.9637 C62.9355,88.0257 62.9315,86.5257 61.9715,86.4637" id="Fill-32" fill="#57C1B6"></path>
                    <path d="M57.7567,91.5745 C58.5757,92.5975 59.3957,93.6205 60.2157,94.6445 C60.5057,95.0065 61.1977,94.8975 61.3937,94.4925 C62.7737,91.6385 64.5537,89.0655 66.7517,86.7815 C67.4217,86.0855 66.3617,85.0235 65.6917,85.7205 C63.4077,88.0935 61.5317,90.7705 60.0987,93.7355 C60.4907,93.6845 60.8837,93.6345 61.2767,93.5835 C60.4567,92.5605 59.6367,91.5365 58.8177,90.5135 C58.2137,89.7605 57.1577,90.8275 57.7567,91.5745" id="Fill-34" fill="#57C1B6"></path>
                    <path d="M144.3719,31.6292 L187.6609,31.6292 L188.2979,32.2662 L188.2979,73.0082 L187.6639,72.8292 C173.0209,72.6212 158.3799,72.4132 143.7379,72.2052 L143.7349,71.7352 L143.7349,32.2662 L144.3719,31.6292 Z" id="Fill-36" fill="#FFFFFF"></path>
                    <path d="M144.3719,32.3792 L166.0169,32.3792 L177.8229,32.3792 C179.2319,32.3792 186.5999,31.4702 187.4489,32.4782 C187.9729,33.0982 187.5479,37.3442 187.5479,38.0862 L187.5479,43.9062 L187.5479,53.6072 L187.5479,65.2482 C187.5479,66.6152 187.8039,72.0682 187.7639,72.0922 C187.2479,72.3932 184.5149,72.0342 183.6709,72.0222 C181.6739,71.9942 179.6779,71.9652 177.6809,71.9372 C174.0199,71.8852 170.3589,71.8332 166.6989,71.7812 C163.0389,71.7292 159.3779,71.6772 155.7179,71.6252 C153.7219,71.5972 151.7249,71.5682 149.7269,71.5402 C148.6409,71.5252 145.7729,72.0312 145.1099,71.7272 C144.2559,71.3352 144.4859,71.5552 144.4849,69.7612 L144.4849,63.8412 L144.4849,52.9872 L144.4849,42.1332 C144.4849,40.0482 143.4489,33.6122 144.9019,32.1592 C145.5859,31.4762 144.5249,30.4152 143.8419,31.0992 C142.3919,32.5492 142.9849,34.1322 142.9849,36.2122 L142.9849,49.0402 C142.9849,56.7622 142.9489,64.4842 142.9879,72.2052 C142.9899,72.6152 143.3299,72.9492 143.7379,72.9552 C151.3919,73.0642 159.0459,73.1722 166.6989,73.2812 C170.3589,73.3332 174.0199,73.3852 177.6809,73.4372 C180.8739,73.4832 185.0059,72.8562 188.0989,73.7322 C188.5679,73.8642 189.0479,73.4922 189.0479,73.0082 L189.0479,47.7872 L189.0479,36.1462 C189.0479,34.5682 189.7509,32.4012 188.3509,31.2582 C186.8639,30.0442 183.5449,30.8792 181.7579,30.8792 L169.9519,30.8792 L144.3719,30.8792 C143.4069,30.8792 143.4049,32.3792 144.3719,32.3792" id="Fill-38" fill="#000000"></path>
                    <path d="M159.1698,44.2742 C159.3768,49.9922 159.5838,55.7102 159.7908,61.4282 L173.4698,51.0662 C168.7118,48.2572 163.9528,45.4492 159.1948,42.6412 C159.1258,42.9212 159.0568,43.2022 158.9878,43.4822 L159.1698,44.2742 Z" id="Fill-40" fill="#57C1B6"></path>
                    <path d="M273.2831,115.4158 L371.2551,115.4158 L372.6951,116.5288 L372.6951,187.7478 L371.2611,187.4338 C338.1231,187.0708 304.9851,186.7078 271.8481,186.3448 L271.8431,185.5218 L271.8431,116.5288 L273.2831,115.4158 Z" id="Fill-42" fill="#FFFFFF"></path>
                    <path d="M273.2831,116.1658 L342.2621,116.1658 L359.2581,116.1658 C361.9231,116.1658 364.5921,116.1238 367.2561,116.1658 C367.7621,116.1738 370.5941,115.9238 371.2501,116.3518 C372.4441,117.1308 371.9451,119.2178 371.9451,120.4848 C371.9471,131.6958 371.9451,142.9058 371.9451,154.1168 L371.9451,169.9428 L371.9451,178.8458 L371.9451,182.8018 C371.9451,183.2698 372.4681,187.0018 372.5221,186.9428 C372.3631,187.1138 368.3121,186.6518 368.2781,186.6518 C365.6271,186.6228 362.9751,186.5928 360.3251,186.5638 L342.4301,186.3678 C330.8331,186.2408 319.2341,186.1138 307.6371,185.9868 C302.3351,185.9288 297.0321,185.8708 291.7301,185.8118 C289.0801,185.7828 286.4291,185.7538 283.7771,185.7248 C280.9151,185.6938 276.5351,186.4988 273.8371,185.6158 C272.9081,185.3118 273.1421,186.3028 272.5931,185.5218 C272.1411,184.8818 272.5931,180.4188 272.5931,179.6088 L272.5931,170.7378 L272.5931,152.0108 L272.5931,132.2988 L272.5931,122.4418 C272.5931,120.2098 271.8301,117.4778 273.6621,116.0628 C274.4151,115.4818 273.6691,114.1778 272.9051,114.7688 C269.8141,117.1548 271.0931,120.6358 271.0931,124.4138 L271.0931,146.0978 C271.0931,159.5118 271.0111,172.9298 271.0981,186.3448 C271.1001,186.7528 271.4391,187.0898 271.8481,187.0948 C289.0801,187.2828 306.3111,187.4718 323.5431,187.6608 C332.1581,187.7558 340.7741,187.8498 349.3891,187.9438 C356.7201,188.0248 365.3341,186.9058 372.4961,188.4708 C372.9681,188.5738 373.4451,188.2558 373.4451,187.7478 L373.4451,141.2578 C373.4451,133.6748 373.5001,126.0898 373.4451,118.5068 C373.4151,114.3368 371.0721,114.6658 367.2561,114.6658 L273.2831,114.6658 C272.3181,114.6658 272.3161,116.1658 273.2831,116.1658" id="Fill-44" fill="#000000"></path>
                    <path d="M283.1522,121.2562 L283.1442,121.2552 C282.3342,121.1312 281.4682,121.5772 281.0992,122.3092 C280.7302,123.0412 280.8862,124.0022 281.4682,124.5792 C282.0492,125.1572 283.0122,125.3062 283.7412,124.9322 C284.4702,124.5582 284.9112,123.6892 284.7812,122.8802 C284.6512,122.0712 283.9622,121.3832 283.1522,121.2562" id="Fill-46" fill="#EAE8EB"></path>
                    <path d="M289.3456,121.2562 L289.3376,121.2552 C288.5276,121.1312 287.6616,121.5772 287.2926,122.3092 C286.9246,123.0412 287.0796,124.0022 287.6616,124.5792 C288.2436,125.1572 289.2056,125.3062 289.9356,124.9322 C290.6636,124.5582 291.1046,123.6892 290.9746,122.8802 C290.8446,122.0712 290.1556,121.3832 289.3456,121.2562" id="Fill-48" fill="#EAE8EB"></path>
                    <path d="M297.1209,122.8802 C296.9909,122.0712 296.3019,121.3832 295.4919,121.2562 L295.4839,121.2552 C294.6749,121.1302 293.8079,121.5772 293.4399,122.3092 C293.0709,123.0412 293.2259,124.0022 293.8079,124.5792 C294.3909,125.1572 295.3519,125.3062 296.0819,124.9322 C296.8109,124.5582 297.2509,123.6892 297.1209,122.8802" id="Fill-50" fill="#EAE8EB"></path>
                    <path d="M279.3534,139.244 C309.4314,138.65 339.5094,138.056 369.5874,137.461 C370.5514,137.442 370.5544,135.942 369.5874,135.961 C339.5094,136.556 309.4314,137.15 279.3534,137.744 C278.3894,137.763 278.3864,139.263 279.3534,139.244" id="Fill-52" fill="#EAE8EB"></path>
                    <path d="M279.3368,150.9764 C308.5408,150.2724 337.7458,149.5694 366.9498,148.8654 C367.9138,148.8424 367.9168,147.3424 366.9498,147.3654 C337.7458,148.0694 308.5408,148.7724 279.3368,149.4764 C278.3738,149.4994 278.3698,150.9994 279.3368,150.9764" id="Fill-54" fill="#EAE8EB"></path>
                    <path d="M278.4725,163.5057 C308.1145,162.2567 337.7565,161.0077 367.3995,159.7587 C368.3605,159.7187 368.3665,158.2177 367.3995,158.2587 C337.7565,159.5077 308.1145,160.7567 278.4725,162.0057 C277.5105,162.0467 277.5045,163.5467 278.4725,163.5057" id="Fill-56" fill="#EAE8EB"></path>
                    <path d="M274.951,175.1668 C306.332,173.6258 337.76,173.5698 369.145,174.9988 C370.111,175.0428 370.108,173.5428 369.145,173.4988 C337.76,172.0698 306.332,172.1258 274.951,173.6668 C273.99,173.7138 273.984,175.2148 274.951,175.1668" id="Fill-58" fill="#EAE8EB"></path>
                    <path d="M278.6766,181.7415 C281.1736,166.6065 287.5916,152.6685 294.0026,138.8575 C293.5456,138.7985 293.0886,138.7385 292.6316,138.6785 C296.9116,152.3075 303.3226,164.9915 311.4006,176.7595 C311.8236,177.3775 312.7516,177.1415 312.7976,176.3805 C312.9966,173.0765 313.5356,169.8525 314.6006,166.7125 C315.0856,165.2795 315.5726,162.2515 316.9416,161.8425 C317.8706,161.5655 318.6666,162.5235 319.6366,162.9775 C321.7716,163.9745 324.8056,164.4885 326.9276,163.1575 C329.9506,161.2595 330.2206,155.6285 331.0606,152.5725 C332.7986,146.2435 334.5356,139.9155 336.2746,133.5865 C335.8176,133.6465 335.3606,133.7065 334.9036,133.7655 C340.7946,142.4915 346.6866,151.2165 352.5776,159.9425 C352.8196,160.2995 353.4346,160.4985 353.7556,160.0945 C360.3226,151.8295 365.1056,142.6425 367.2716,132.2725 C367.4676,131.3305 366.0226,130.9285 365.8246,131.8735 C364.8116,136.7275 363.3006,141.3865 361.1386,145.8595 C359.8236,148.5785 356.8806,156.0045 353.7816,156.9345 C352.7646,158.0125 352.0586,157.6725 351.6636,155.9135 C350.9276,154.8225 350.1916,153.7315 349.4536,152.6405 C347.9816,150.4595 346.5086,148.2785 345.0356,146.0965 C342.0896,141.7345 339.1446,137.3715 336.1986,133.0095 C335.8476,132.4885 335.0066,132.5365 334.8276,133.1885 C333.1766,139.1995 331.5266,145.2125 329.8746,151.2235 C329.2376,153.5475 328.9426,157.9405 327.5286,159.7675 C324.3236,163.9075 320.4546,162.0605 317.0816,159.5105 C316.7676,159.2725 316.2276,159.4525 316.0556,159.7795 C313.2906,165.0235 311.6556,170.4515 311.2976,176.3805 C311.7636,176.2545 312.2296,176.1285 312.6956,176.0025 C304.6916,164.3405 298.3216,151.7905 294.0776,138.2805 C293.9016,137.7165 292.9946,137.4815 292.7066,138.1005 C286.2446,152.0225 279.7476,166.0835 277.2306,181.3435 C277.0746,182.2875 278.5196,182.6935 278.6766,181.7415" id="Fill-60" fill="#57C1B6"></path>
                    <path d="M174.3514,73.429 C174.3514,73.429 164.6594,94.953 179.7314,111.267 C194.8034,127.582 211.3404,115.554 211.3404,115.554 L211.0654,134.415 C211.0654,134.415 227.8454,131.539 232.4474,130.374 C232.4474,130.374 224.6304,101.204 225.0604,96.346 C225.0604,96.346 235.8274,94.771 235.1924,85.72 C234.5574,76.668 226.3414,75.277 224.0784,75.775 C221.8144,76.274 218.2024,78.289 218.2024,78.289 L217.9884,72.031 L174.3514,73.429 Z" id="Fill-62" fill="#FFFFFF"></path>
                    <path d="M236.2625,180.4974 C242.8515,164.8224 245.4005,147.4484 237.0495,129.2084 C237.0495,129.2084 214.6625,135.1344 207.3445,134.8144 L206.4875,143.8104 L193.6665,182.6664 C193.7805,182.3304 194.5325,180.3724 195.8185,183.2334 C197.2185,186.3464 202.1805,201.3614 202.1805,201.3614 C202.1805,201.3614 207.4015,200.9644 211.0655,205.3174 C211.0655,205.3174 229.6735,196.1734 236.2625,180.4974" id="Fill-64" fill="#57C1B6"></path>
                    <path d="M258.1571,180.4974 C258.1571,180.4974 253.5081,202.5804 236.4881,214.6064 C219.4691,226.6324 212.8031,229.6944 212.8031,229.6944 L217.2861,241.6054 L262.8161,240.8954 C262.8161,240.8954 267.0241,200.5954 258.1571,180.4974" id="Fill-66" fill="#57C1B6"></path>
                    <path d="M234.8534,133.9075 C223.0924,141.9515 212.6444,151.5705 203.6824,162.6505 C203.1414,163.3185 203.7974,164.1935 204.5904,163.8285 C216.0284,158.5675 227.4644,153.3055 238.9024,148.0455 C238.6504,147.6135 238.3974,147.1815 238.1454,146.7495 C220.7914,159.4985 205.7194,174.8955 193.3484,192.5195 C192.8944,193.1665 193.7604,193.8805 194.3744,193.5455 C211.1604,184.3955 227.9464,175.2465 244.7314,166.0965 C244.3894,165.7545 244.0474,165.4125 243.7064,165.0705 C231.8334,184.8265 217.9504,203.2345 202.2114,220.0745 C201.6364,220.6905 202.3654,221.6815 203.1214,221.2525 C222.0504,210.4945 240.9794,199.7375 259.9094,188.9795 C259.6054,188.5875 259.3024,188.1945 258.9994,187.8025 C246.2914,203.5735 233.5814,219.3455 220.8724,235.1165 C220.3284,235.7905 220.9864,236.6475 221.7804,236.2945 C234.1624,230.7845 246.0174,224.2875 257.3254,216.8175 C256.9824,216.4755 256.6404,216.1335 256.2984,215.7915 C251.8614,223.6275 247.4234,231.4645 242.9864,239.3015 C242.5104,240.1425 243.8054,240.8995 244.2824,240.0585 C248.7194,232.2215 253.1564,224.3855 257.5934,216.5485 C257.9484,215.9225 257.2144,215.0945 256.5674,215.5225 C245.2604,222.9925 233.4054,229.4895 221.0234,234.9995 C221.3264,235.3915 221.6284,235.7845 221.9324,236.1775 C234.6414,220.4055 247.3514,204.6345 260.0604,188.8625 C260.5694,188.2305 259.9404,187.2365 259.1514,187.6845 C240.2224,198.4425 221.2924,209.1995 202.3644,219.9565 C202.6664,220.3495 202.9694,220.7415 203.2724,221.1355 C219.0964,204.2025 233.0644,185.6925 245.0004,165.8275 C245.3974,165.1675 244.6194,164.4505 243.9744,164.8015 C227.1894,173.9515 210.4034,183.1005 193.6184,192.2505 C193.9594,192.5925 194.3014,192.9345 194.6444,193.2765 C206.8614,175.8705 221.7644,160.6365 238.9024,148.0455 C239.6804,147.4735 239.0304,146.3435 238.1454,146.7495 C226.7074,152.0115 215.2714,157.2715 203.8334,162.5325 C204.1364,162.9255 204.4394,163.3185 204.7434,163.7115 C213.6254,152.7295 223.9494,143.1795 235.6104,135.2025 C236.4024,134.6615 235.6524,133.3605 234.8534,133.9075" id="Fill-68" fill="#449F98"></path>
                    <path d="M95.2332,176.5955 L101.4602,173.1395 C101.4602,173.1395 194.4702,181.7415 195.8182,183.2335 C197.1672,184.7255 204.0622,206.9975 204.0622,206.9975 C204.0622,206.9975 203.1682,211.6565 194.2612,210.9085 C185.3552,210.1595 182.6752,208.5885 182.4812,214.2765 C182.2872,219.9645 185.2272,228.3395 196.2182,231.4495 C207.2102,234.5585 212.8022,229.6945 212.8022,229.6945 L218.8872,245.8595 L214.4522,248.7655 L122.5032,237.5835 L119.1202,236.3965 L115.2052,225.1985 C115.2052,225.1985 123.5842,225.2605 123.7092,219.3735 C123.8332,213.4875 124.6022,205.2855 121.9392,205.0475 C119.2762,204.8085 107.7252,206.2305 107.7252,206.2305 L95.2332,176.5955 Z" id="Fill-70" fill="#FFFFFF"></path>
                    <path d="M186.5614,116.3655 C186.5614,116.3655 193.0694,119.7575 200.2754,119.2635 C207.4814,118.7695 211.3404,115.5535 211.3404,115.5535 L211.0654,134.4145 L207.3444,134.8145 L206.4874,143.8105 L197.1344,156.8055 C197.1344,156.8055 188.4454,153.8755 187.0724,147.3895 C185.6994,140.9035 189.7424,135.0205 190.8684,133.3215 C191.9934,131.6205 193.6934,127.2265 192.2014,125.2345 C190.7094,123.2415 188.1154,120.6765 187.5184,119.2635 C186.9214,117.8505 186.5614,116.3655 186.5614,116.3655" id="Fill-72" fill="#000000"></path>
                    <path d="M217.9881,77.3289 L217.9881,72.0309 L166.0921,73.3499 C166.0921,73.3499 179.1241,45.8589 208.1671,46.9639 C237.2101,48.0699 247.3771,73.4309 248.0351,75.2529 C248.6931,77.0759 252.7101,86.4609 249.6751,103.2229 C249.6751,103.2229 246.9871,111.2209 256.8891,114.1019 C266.7911,116.9839 278.4681,122.8499 281.9541,134.8149 C285.4391,146.7789 283.0301,156.6829 278.8761,162.8769 C278.8761,162.8769 277.8851,149.6459 276.7831,147.8429 C275.6801,146.0399 272.8241,144.0499 269.9141,143.9179 C267.0051,143.7859 246.4751,143.1859 246.4751,143.1859 L239.1391,136.7809 L237.0501,129.2079 L232.4471,130.3739 C232.4471,130.3739 224.5931,104.6459 225.0601,96.3469 C225.0601,96.3469 238.3881,94.9959 234.4711,82.2419 C232.1731,74.7569 224.0781,74.8639 217.9881,77.3289" id="Fill-74" fill="#000000"></path>
                    <path d="M171.245,179.9134 C181.544,174.7404 199.988,157.0224 205.442,146.9014 L193.65,182.7174 L171.245,179.9134 Z" id="Fill-76" fill="#FFFFFF"></path>
                    <path d="M103.4784,198.8338 C101.5084,201.0928 98.6054,204.2558 102.2964,212.0788 C105.9874,219.9008 107.5544,225.1978 111.3794,225.1978 C115.2054,225.1978 122.6184,225.4588 123.7084,219.3738 C124.7984,213.2888 123.9714,205.2198 121.9394,205.0468 C119.9074,204.8748 107.7254,206.2308 107.7254,206.2308 L103.4784,198.8338 Z" id="Fill-78" fill="#EFEFEF"></path>
                    <path d="M202.1805,201.3621 L204.0625,206.9971 C204.0625,206.9971 202.8275,210.4161 200.5995,210.2871 C198.3715,210.1571 186.8665,209.4901 185.4575,209.9781 C184.0495,210.4661 180.5565,212.9061 183.3985,220.2391 C186.2405,227.5721 192.1035,232.4421 200.2755,232.1151 C208.4485,231.7891 217.3925,229.1891 226.9405,221.8981 C236.4885,214.6061 256.5015,198.5821 258.1585,180.4981 C259.8135,162.4131 255.8385,152.2401 239.1395,136.7811 C239.1395,136.7811 246.6745,156.6861 238.4285,174.8381 C227.5275,198.8341 211.0655,205.3171 211.0655,205.3171 C211.0655,205.3171 205.2055,201.1761 202.1805,201.3621" id="Fill-80" fill="#FFFFFF"></path>
                    <path d="M246.4754,143.1859 C246.4754,143.1859 271.0754,142.5539 273.9294,145.1989 C276.7834,147.8429 278.0824,152.1149 278.8754,162.8769 C279.6694,173.6389 286.4974,241.6049 286.4974,241.6049 L262.8164,240.8949 C262.8164,240.8949 265.6654,196.2089 258.1584,180.4979 C258.1584,180.4979 260.9654,169.3309 256.5574,160.3659 C252.1484,151.4019 246.4754,143.1859 246.4754,143.1859" id="Fill-82" fill="#EFEFEF"></path>
                    <path d="M221.5946,96.1365 C221.5946,96.1365 227.6016,121.1865 214.5486,134.1565 L232.4476,130.3735 C232.4476,130.3735 225.0676,102.0705 225.0606,96.3465 L221.5946,96.1365 Z" id="Fill-84" fill="#EFEFEF"></path>
                    <path d="M241.3973,138.9149 C241.3973,138.9149 284.0083,187.1179 196.2183,231.4489 C196.2183,231.4489 219.0143,237.0669 246.4753,204.5329 C273.9353,171.9989 246.9733,141.1119 241.3973,138.9149" id="Fill-86" fill="#EFEFEF"></path>
                    <path d="M218.7323,78.8196 C224.3713,74.3096 232.9743,76.9766 234.2913,84.2936 C235.5373,91.2196 229.0803,96.5636 222.4593,95.0656 C221.5183,94.8526 221.1173,96.2986 222.0593,96.5116 C229.7783,98.2576 237.2943,91.9596 235.7373,83.8946 C234.0963,75.3976 224.1693,72.5626 217.6713,77.7586 C216.9183,78.3616 217.9853,79.4176 218.7323,78.8196" id="Fill-88" fill="#000000"></path>
                    <path d="M218.8211,80.1873 L218.8211,72.0283 C218.8211,71.0633 217.3211,71.0623 217.3211,72.0283 L217.3211,80.1873 C217.3211,81.1523 218.8211,81.1543 218.8211,80.1873" id="Fill-90" fill="#000000"></path>
                    <path d="M173.703,73.0506 C168.128,86.1466 168.976,101.7446 179.546,112.1316 C188.941,121.3636 203.529,122.6486 214.018,114.5066 C214.78,113.9146 213.712,112.8606 212.958,113.4456 C202.727,121.3866 188.189,119.4906 179.605,110.0366 C170.52,100.0296 169.862,85.8706 174.999,73.8076 C175.373,72.9296 174.081,72.1646 173.703,73.0506" id="Fill-92" fill="#000000"></path>
                    <path d="M174.9872,83.8441 C176.3802,89.0471 182.9512,90.0581 185.9552,85.6571 C186.5002,84.8581 185.2012,84.1071 184.6592,84.9011 C182.3482,88.2861 177.4772,87.3441 176.4342,83.4451 C176.1842,82.5141 174.7372,82.9091 174.9872,83.8441" id="Fill-94" fill="#000000"></path>
                    <path d="M180.6952,86.9529 L175.8382,86.9529 C174.8722,86.9529 174.8712,88.4529 175.8382,88.4529 L180.6952,88.4529 C181.6602,88.4529 181.6622,86.9529 180.6952,86.9529" id="Fill-96" fill="#000000"></path>
                    <path d="M196.1678,83.8441 C197.5608,89.0471 204.1318,90.0581 207.1348,85.6571 C207.6808,84.8581 206.3818,84.1071 205.8398,84.9011 C203.5288,88.2861 198.6578,87.3441 197.6138,83.4451 C197.3648,82.5141 195.9178,82.9091 196.1678,83.8441" id="Fill-98" fill="#000000"></path>
                    <path d="M201.8748,86.9529 L197.0178,86.9529 C196.0528,86.9529 196.0508,88.4529 197.0178,88.4529 L201.8748,88.4529 C202.8408,88.4529 202.8418,86.9529 201.8748,86.9529" id="Fill-100" fill="#000000"></path>
                    <path d="M183.1991,104.6966 C189.0291,107.1486 195.7651,105.5066 199.8371,100.6736 C200.4551,99.9396 199.3991,98.8736 198.7761,99.6136 C195.0031,104.0926 188.9911,105.5186 183.5971,103.2496 C182.7091,102.8766 182.3211,104.3266 183.1991,104.6966" id="Fill-102" fill="#000000"></path>
                    <path d="M188.8299,88.5389 C188.4169,89.9629 188.0039,91.3879 187.5899,92.8119 C187.2879,93.8519 186.5419,95.2869 186.7789,96.3959 C187.1549,98.1549 189.1319,97.7979 190.3219,97.2729 C191.2039,96.8849 190.4409,95.5919 189.5649,95.9779 C187.6659,96.8159 188.5399,94.9209 188.6829,94.4319 C188.8589,93.8219 189.0359,93.2109 189.2139,92.6009 C189.5679,91.3799 189.9219,90.1589 190.2759,88.9369 C190.5459,88.0089 189.0989,87.6119 188.8299,88.5389" id="Fill-104" fill="#000000"></path>
                    <path d="M221.4813,83.3348 C222.5143,81.2278 224.8213,80.3788 226.9443,81.4688 C227.8013,81.9088 228.5613,80.6148 227.7023,80.1738 C224.8943,78.7328 221.5933,79.7098 220.1853,82.5778 C219.7623,83.4408 221.0553,84.2018 221.4813,83.3348" id="Fill-106" fill="#000000"></path>
                    <path d="M207.3446,135.5648 C217.4906,134.6288 227.4576,132.7598 237.2486,129.9318 C238.1746,129.6638 237.7816,128.2158 236.8506,128.4848 C227.1796,131.2778 217.3706,133.1408 207.3446,134.0648 C206.3916,134.1528 206.3816,135.6528 207.3446,135.5648" id="Fill-108" fill="#000000"></path>
                    <path d="M210.5907,115.554 C210.5357,121.841 210.4827,128.128 210.4287,134.415 C210.4197,135.38 211.9197,135.381 211.9287,134.415 C211.9827,128.128 212.0357,121.841 212.0907,115.554 C212.0987,114.589 210.5987,114.588 210.5907,115.554" id="Fill-110" fill="#000000"></path>
                    <path d="M224.3104,96.3465 C225.7434,108.0135 228.3574,119.4505 232.1644,130.5735 C232.4754,131.4815 233.9244,131.0915 233.6114,130.1745 C229.8494,119.1845 227.2264,107.8775 225.8104,96.3465 C225.6944,95.4005 224.1934,95.3885 224.3104,96.3465" id="Fill-112" fill="#000000"></path>
                    <path d="M236.326,129.4075 C237.246,132.1495 238.165,134.8915 239.085,137.6335 C239.389,138.5435 240.839,138.1535 240.531,137.2345 C239.611,134.4925 238.692,131.7505 237.772,129.0085 C237.468,128.0985 236.018,128.4885 236.326,129.4075" id="Fill-114" fill="#000000"></path>
                    <path d="M206.5946,134.8148 C206.4466,137.4058 206.2986,139.9978 206.1516,142.5888 C206.0956,143.5528 207.5956,143.5498 207.6516,142.5888 C207.7986,139.9978 207.9466,137.4058 208.0946,134.8148 C208.1496,133.8498 206.6496,133.8538 206.5946,134.8148" id="Fill-116" fill="#000000"></path>
                    <path d="M206.1776,142.389 C201.7606,155.446 197.3436,168.503 192.9266,181.561 C192.6166,182.477 194.0656,182.87 194.3726,181.959 L207.6236,142.788 C207.9346,141.871 206.4866,141.478 206.1776,142.389" id="Fill-118" fill="#000000"></path>
                    <path d="M114.4823,225.3973 C115.9223,229.0833 116.9633,232.9093 118.3973,236.5963 C118.7433,237.4863 120.1943,237.0993 119.8433,236.1973 C118.4103,232.5103 117.3693,228.6843 115.9283,224.9983 C115.5813,224.1093 114.1293,224.4963 114.4823,225.3973" id="Fill-120" fill="#000000"></path>
                    <path d="M171.3163,180.5609 C186.4783,171.3259 199.0163,158.5699 207.5483,142.9669 C208.0113,142.1199 206.7163,141.3619 206.2533,142.2099 C197.8343,157.6079 185.5233,170.1499 170.5593,179.2659 C169.7363,179.7679 170.4893,181.0649 171.3163,180.5609" id="Fill-122" fill="#000000"></path>
                    <path d="M211.5956,204.7869 C209.1066,202.6209 206.1916,201.1999 202.9356,200.6389 C201.9916,200.4759 201.5856,201.9209 202.5366,202.0849 C205.5416,202.6029 208.2316,203.8429 210.5346,205.8479 C211.2606,206.4789 212.3256,205.4219 211.5956,204.7869" id="Fill-124" fill="#000000"></path>
                    <path d="M209.9315,207.6448 C222.3235,200.5748 232.9535,190.5408 238.6095,177.2438 C244.0325,164.4938 244.1095,150.4778 240.5315,137.2338 C240.2795,136.3038 238.8315,136.6988 239.0845,137.6328 C242.4745,150.1788 242.5455,163.4378 237.6685,175.6208 C232.2705,189.1078 221.6125,199.2528 209.1745,206.3498 C208.3355,206.8288 209.0905,208.1248 209.9315,207.6448" id="Fill-126" fill="#000000"></path>
                    <path d="M39.4706,241.6453 L150.0146,241.6453 C150.9806,241.6453 150.9816,240.1453 150.0146,240.1453 L39.4706,240.1453 C38.5056,240.1453 38.5036,241.6453 39.4706,241.6453" id="Fill-128" fill="#000000"></path>
                    <path d="M217.286,241.6453 L336.885,241.6453 C337.849,241.6453 337.851,240.1453 336.885,240.1453 L217.286,240.1453 C216.321,240.1453 216.319,241.6453 217.286,241.6453" id="Fill-130" fill="#000000"></path>
                    <path d="M201.1073,209.7786 C199.6113,205.3326 198.1643,200.8696 196.7593,196.3936 C196.0163,194.0266 195.5333,188.8916 193.7263,187.1596 C192.8033,186.2746 190.7093,186.3806 189.6203,186.2106 C186.7233,185.7596 183.8253,185.3206 180.9243,184.8956 C175.7023,184.1286 170.4733,183.4006 165.2403,182.7116 C141.9863,179.6486 118.6363,177.3836 95.2333,175.8456 C94.2693,175.7816 94.2733,177.2816 95.2333,177.3456 C116.3613,178.7346 137.4463,180.7106 158.4563,183.3406 C164.2073,184.0596 169.9523,184.8276 175.6903,185.6436 C180.5133,186.3286 186.5843,186.2886 191.1523,187.9596 C193.1343,188.6846 193.0183,189.3416 193.6783,191.5086 C194.2953,193.5316 194.9223,195.5516 195.5573,197.5686 C196.8853,201.7846 198.2513,205.9886 199.6613,210.1776 C199.9673,211.0876 201.4173,210.6966 201.1073,209.7786" id="Fill-132" fill="#000000"></path>
                    <path d="M118.742,237.0443 C120.576,238.4193 121.881,238.2613 124.327,238.5413 C128.276,238.9923 132.225,239.4433 136.175,239.8943 C145.06,240.9093 153.946,241.9243 162.832,242.9393 C180.273,244.9313 197.716,246.9233 215.157,248.9163 C215.792,248.9883 215.999,248.2413 215.805,247.7873 C213.483,242.3483 211.241,236.8793 209.086,231.3723 C208.738,230.4823 207.287,230.8703 207.639,231.7713 C209.842,237.3983 212.138,242.9863 214.51,248.5443 C214.725,248.1683 214.941,247.7923 215.157,247.4163 C198.703,245.5363 182.248,243.6573 165.793,241.7773 C157.895,240.8753 149.997,239.9733 142.098,239.0713 L130.251,237.7173 C127.16,237.3643 122.078,237.6833 119.499,235.7493 C118.726,235.1693 117.977,236.4713 118.742,237.0443" id="Fill-134" fill="#000000"></path>
                    <path d="M204.786,206.7982 C203.169,202.1502 201.682,197.4632 200.286,192.7442 C199.649,190.5922 199.044,184.5902 197.381,183.1222 C196.023,181.9242 193.133,182.0612 191.455,181.8142 C188.531,181.3832 185.604,180.9802 182.675,180.5922 C168.84,178.7632 154.959,177.2862 141.072,175.9222 C130.2,174.8542 119.318,173.8682 108.432,172.9582 C106.38,172.7872 103.702,172.0902 101.649,172.4042 C99.355,172.7562 96.891,174.8172 94.855,175.9482 C94.592,176.0932 94.39,176.4962 94.511,176.7952 C98.126,185.8462 101.741,194.8982 105.357,203.9502 C105.711,204.8352 107.162,204.4492 106.804,203.5512 C104.033,196.6162 101.264,189.6812 98.493,182.7462 C97.781,180.9632 97.083,179.1732 96.356,177.3962 C96.201,177.0152 96.103,176.1672 95.87,176.8122 C95.613,177.5212 97.074,176.3942 97.483,176.2042 C99.774,175.1432 100.688,174.0382 102.623,173.9822 C105,173.9132 107.513,174.3812 109.878,174.5802 C131.569,176.4082 153.254,178.4532 174.862,181.0992 C178.656,181.5642 182.448,182.0512 186.235,182.5732 C188.714,182.9152 192.877,182.7352 195.062,183.8692 C197.613,185.1932 198.005,190.3192 198.84,193.1432 C200.235,197.8622 201.723,202.5482 203.339,207.1962 C203.654,208.1032 205.104,207.7132 204.786,206.7982" id="Fill-136" fill="#000000"></path>
                    <path d="M118.742,237.0443 C121.805,239.3413 127.093,238.8633 130.809,239.2993 C136.418,239.9583 142.025,240.6263 147.632,241.3003 C159.546,242.7313 171.457,244.1883 183.367,245.6553 C192.051,246.7253 200.733,247.8023 209.416,248.8853 C210.951,249.0773 213.114,249.7543 214.665,249.5423 C216.366,249.3093 217.947,247.7823 219.39,246.8293 C219.645,246.6603 219.857,246.2983 219.735,245.9823 C217.619,240.5043 215.568,235.0013 213.525,229.4953 C213.192,228.5983 211.742,228.9863 212.079,229.8943 C213.512,233.7543 214.952,237.6123 216.412,241.4633 C216.856,242.6383 218.186,244.8463 218.19,246.1253 C218.304,246.5353 218.393,246.3763 218.461,245.6483 C218.095,245.8893 217.729,246.1313 217.363,246.3733 C216.611,246.6853 216.014,247.5043 215.246,247.7723 C214.516,248.0253 215.084,247.8913 213.997,247.9583 C211.668,248.1013 208.99,247.3323 206.675,247.0443 C202.011,246.4623 197.346,245.8833 192.68,245.3063 C180.37,243.7823 168.058,242.2703 155.743,240.7783 C149.102,239.9743 142.46,239.1763 135.816,238.3903 C132.941,238.0493 130.066,237.7113 127.19,237.3763 C124.695,237.0863 121.556,237.2923 119.499,235.7493 C118.726,235.1693 117.978,236.4713 118.742,237.0443" id="Fill-138" fill="#000000"></path>
                    <path d="M107.7254,206.9808 C111.0434,206.5718 120.3744,203.6958 122.5774,207.3898 C123.4794,208.9038 123.1004,213.1408 123.1264,214.9678 C123.1774,218.6068 122.7074,222.3748 118.3534,223.9748 C116.6304,224.6068 112.8364,224.9218 111.0544,224.3738 C107.6304,223.3198 106.5754,219.4428 105.4694,216.6178 C103.6154,211.8798 99.0564,203.3478 104.0084,199.3648 C104.7614,198.7598 103.6944,197.7038 102.9484,198.3038 C96.7014,203.3278 102.5984,213.8628 105.0374,219.5638 C107.6944,225.7708 112.2644,227.0908 118.7514,225.4208 C126.0324,223.5468 124.9344,215.3088 124.3264,209.3398 C124.1394,207.5038 123.9874,205.2808 122.1384,204.3238 C120.7214,203.5898 118.8034,204.1288 117.3514,204.2948 C114.1404,204.6648 110.9334,205.0858 107.7254,205.4808 C106.7804,205.5978 106.7684,207.0988 107.7254,206.9808" id="Fill-140" fill="#000000"></path>
                    <path d="M197.3338,156.0828 C191.7948,154.5438 187.5608,150.1378 187.3198,144.1918 C187.0968,138.6328 190.8288,135.8848 192.9558,131.3588 C196.0188,124.8428 188.6258,122.2638 187.4228,116.5568 C187.2238,115.6128 185.7768,116.0118 185.9768,116.9558 C187.1168,122.3638 193.5568,124.8968 191.3488,131.2408 C190.5598,133.5058 188.1928,135.3428 187.1608,137.5558 C186.4428,139.0938 186.0058,140.7938 185.8678,142.4828 C185.2798,149.7288 190.1428,155.6418 196.9348,157.5288 C197.8658,157.7888 198.2638,156.3418 197.3338,156.0828" id="Fill-142" fill="#000000"></path>
                    <path d="M257.4344,180.6971 C262.3894,200.1341 264.1214,220.0811 262.5304,240.0761 C262.4534,241.0381 263.9544,241.0331 264.0304,240.0761 C265.6304,219.9581 263.8654,199.8501 258.8804,180.2981 C258.6424,179.3641 257.1954,179.7601 257.4344,180.6971" id="Fill-144" fill="#000000"></path>
                    <path d="M246.4754,143.9359 C251.2804,144.0749 256.0844,144.2169 260.8894,144.3569 C265.5914,144.4959 273.3954,143.3589 276.1564,148.3379 C277.2494,150.3099 276.9334,154.3709 277.1634,156.6089 C277.4364,159.2519 277.7084,161.8959 277.9814,164.5399 C278.4934,169.4979 279.0034,174.4549 279.5144,179.4129 C281.5924,199.5719 283.6694,219.7319 285.7474,239.8919 C285.8454,240.8419 287.3464,240.8529 287.2474,239.8919 C284.7614,215.7659 282.2754,191.6409 279.7884,167.5149 C279.1894,161.7009 278.8294,155.8039 277.9744,150.0229 C277.5954,147.4569 276.8004,145.4909 274.4174,144.2689 C271.2224,142.6299 267.0394,143.0379 263.5894,142.9359 C257.8844,142.7699 252.1804,142.6009 246.4754,142.4359 C245.5094,142.4079 245.5104,143.9079 246.4754,143.9359" id="Fill-146" fill="#000000"></path>
                    <path d="M249.6424,147.6512 C253.4344,147.7562 257.2264,147.8422 261.0194,147.9382 C262.6594,147.9792 264.3224,147.9502 265.9564,148.0962 C271.1744,148.5612 272.7044,151.5482 273.2294,156.0912 C274.2894,165.2552 275.1214,174.4502 276.0674,183.6262 C278.0274,202.6372 279.9864,221.6492 281.9464,240.6602 C282.0434,241.6112 283.5444,241.6212 283.4464,240.6602 C281.0804,217.7152 278.7154,194.7702 276.3514,171.8252 C275.7774,166.2532 275.2334,160.6772 274.6284,155.1082 C274.3334,152.3932 274.0464,149.7842 271.6214,148.1302 C269.2484,146.5102 265.9674,146.5792 263.2344,146.4952 C258.7044,146.3562 254.1724,146.2772 249.6424,146.1512 C248.6764,146.1252 248.6774,147.6252 249.6424,147.6512" id="Fill-148" fill="#000000"></path>
                    <path d="M279.5233,163.2557 C286.3113,151.0177 286.5613,137.1017 277.6223,125.8647 C273.7243,120.9647 268.4963,117.1297 262.5863,115.0317 C259.3163,113.8707 254.8383,113.4817 252.2793,110.9247 C248.3413,106.9927 251.1553,100.7547 251.6323,95.9717 C254.5143,67.1197 228.7523,42.3597 199.9983,46.6527 C184.8633,48.9137 171.8313,59.1817 165.4453,72.9717 C165.2183,73.4617 165.4803,74.1157 166.0923,74.0997 L218.0713,72.7787 C219.0353,72.7547 219.0393,71.2547 218.0713,71.2787 L166.0923,72.5997 C166.3083,72.9757 166.5243,73.3527 166.7413,73.7287 C179.1233,46.9877 214.7533,38.9727 236.6493,59.5117 C247.7603,69.9347 252.2023,85.6067 249.4413,100.4087 C248.5993,104.9247 247.9653,109.7047 252.1613,112.7317 C256.3183,115.7307 262.0243,115.9787 266.5163,118.4257 C273.4173,122.1847 278.7923,128.4537 281.5263,135.8097 C284.8913,144.8647 282.7813,154.2907 278.2283,162.4987 C277.7593,163.3437 279.0543,164.1007 279.5233,163.2557" id="Fill-150" fill="#000000"></path>
                    <path d="M239.5038,137.659 C249.7338,146.327 257.8328,157.727 258.0108,171.587 C258.1548,182.921 253.2218,193.682 246.5208,202.595 C239.6688,211.707 230.7398,219.456 220.8118,225.046 C210.0498,231.104 194.2468,236.015 185.8038,223.33 C184.4138,221.243 183.5848,218.853 183.3598,216.366 C183.2668,215.331 183.0078,213.459 183.4608,212.476 C184.6498,209.902 186.0878,210.667 188.0908,210.857 C191.5838,211.187 195.2048,211.476 198.7018,211.018 C201.1188,210.701 204.2918,210.022 204.7858,207.197 C204.9508,206.253 203.5058,205.847 203.3398,206.798 C202.2608,212.962 187.7138,207.961 184.3448,209.206 C179.9548,210.829 181.8278,218.503 183.1778,221.592 C188.7118,234.266 203.4688,234.42 214.4718,229.824 C235.5788,221.008 256.6688,200.114 259.2678,176.512 C261.0408,160.409 252.4648,146.681 240.5648,136.598 C239.8318,135.977 238.7658,137.034 239.5038,137.659" id="Fill-152" fill="#000000"></path>
                    <path d="M213.6776,141.0184 C218.9396,140.3994 224.0376,139.6204 229.1736,138.2854 C230.1076,138.0424 229.7106,136.5954 228.7746,136.8384 C223.7746,138.1394 218.8036,138.9154 213.6776,139.5184 C212.7306,139.6304 212.7196,141.1314 213.6776,141.0184" id="Fill-154" fill="#000000"></path>
                    <path d="M160.8905,206.3094 C160.8895,212.2674 156.0205,215.9514 150.0145,214.5384 C144.0075,213.1244 139.1395,207.1494 139.1395,201.1914 C139.1405,195.2344 144.0095,191.5504 150.0155,192.9634 C156.0225,194.3764 160.8905,200.3514 160.8905,206.3094" id="Fill-156" fill="#EAE8EB"></path>
                    <path d="M66.8797,157.3187 C66.8797,175.5937 52.0647,190.4097 33.7887,190.4097 C15.5127,190.4097 0.6977,175.5937 0.6977,157.3187 C0.6977,139.0427 15.5127,124.2277 33.7887,124.2277 C52.0647,124.2277 66.8797,139.0427 66.8797,157.3187" id="Fill-158" fill="#FFFFFF"></path>
                    <path d="M31.2508,124.8069 C48.2718,123.8799 64.4158,136.3799 65.9628,153.7349 C67.5358,171.3829 54.9378,187.2649 37.2308,189.1319 C19.9708,190.9519 4.6308,178.8179 1.8928,161.7479 C-0.8702,144.5329 11.5378,128.6579 28.2178,125.1979 C29.1618,125.0019 28.7628,123.5559 27.8188,123.7509 C14.3288,126.5499 2.8908,137.3869 0.4758,151.1539 C-1.8392,164.3489 4.4658,178.5909 15.7648,185.7869 C27.6148,193.3339 44.1858,192.2449 55.1118,183.4899 C65.6138,175.0749 70.0318,160.1299 66.2558,147.2749 C61.8428,132.2549 46.6288,122.4699 31.2508,123.3069 C30.2908,123.3589 30.2848,124.8599 31.2508,124.8069" id="Fill-160" fill="#000000"></path>
                    <polygon id="Fill-162" fill="#FFFFFF" points="41.8397 187.0735 55.5137 178.5535 62.2027 194.8705"></polygon>
                    <path d="M62.4022,194.1478 C56.3152,191.6888 50.2682,189.1288 44.1802,186.6698 C43.2862,186.3088 42.8972,187.7588 43.7822,188.1158 C49.8702,190.5758 55.9162,193.1348 62.0042,195.5938 C62.8982,195.9558 63.2882,194.5048 62.4022,194.1478" id="Fill-164" fill="#000000"></path>
                    <path d="M63.1346,194.7606 C61.1806,190.1146 59.2266,185.4696 57.2736,180.8236 C56.9046,179.9476 55.4516,180.3326 55.8266,181.2226 C57.7806,185.8676 59.7346,190.5136 61.6886,195.1596 C62.0566,196.0356 63.5086,195.6506 63.1346,194.7606" id="Fill-166" fill="#000000"></path>
                    <path d="M317.951,31.8846 C317.951,49.0516 304.035,62.9676 286.868,62.9676 C269.701,62.9676 255.784,49.0516 255.784,31.8846 C255.784,14.7176 269.701,0.8006 286.868,0.8006 C304.035,0.8006 317.951,14.7176 317.951,31.8846" id="Fill-168" fill="#FFFFFF"></path>
                    <path d="M256.0379,23.6302 C259.6699,9.4732 273.5129,-0.0028 287.7969,0.0952 C287.7959,0.0952 287.7959,0.0952 287.7949,0.0952 C287.7999,0.0952 287.8029,0.0932 287.8079,0.0932 C288.7729,0.0932 288.7739,1.5932 287.8079,1.5932 C287.7969,1.5932 287.7899,1.5882 287.7799,1.5872 C287.7799,1.5872 287.7799,1.5882 287.7809,1.5882 L287.7809,1.5962 C272.0949,1.5182 257.6779,13.3592 256.6119,29.4792 C255.4919,46.4172 268.0619,61.0932 285.0629,62.1312 C301.7219,63.1482 315.8809,50.3172 317.1019,33.7372 C318.2699,17.8892 305.9549,4.1342 290.6059,1.7712 C289.6549,1.6242 290.0589,0.1792 291.0049,0.3242 C303.6519,2.2722 314.6819,11.7902 317.8119,24.3392 C320.9209,36.7972 315.4949,50.6792 305.1049,58.1022 C294.2989,65.8222 278.6809,65.4082 267.9789,57.7012 C257.5139,50.1642 252.8579,36.0232 256.0379,23.6302" id="Fill-170" fill="#000000"></path>
                    <polygon id="Fill-172" fill="#FFFFFF" points="267.6454 49.2332 260.1544 67.4622 278.4814 60.1622"></polygon>
                    <path d="M259.9549,66.7386 C266.0569,64.2876 272.1799,61.8896 278.2819,59.4386 C279.1779,59.0786 279.5659,60.5296 278.6809,60.8846 C272.5789,63.3366 266.4549,65.7346 260.3529,68.1856 C259.4579,68.5446 259.0679,67.0946 259.9549,66.7386" id="Fill-174" fill="#000000"></path>
                    <path d="M259.2352,67.3465 C261.0722,62.9785 262.9092,58.6115 264.7462,54.2435 C265.1142,53.3675 266.5662,53.7525 266.1922,54.6425 C264.3552,59.0105 262.5182,63.3775 260.6812,67.7445 C260.3132,68.6215 258.8612,68.2365 259.2352,67.3465" id="Fill-176" fill="#000000"></path>
                    <path d="M285.6649,14.2859 C284.8829,16.7049 286.4389,19.4469 285.5669,21.8349 C285.2899,22.5969 284.7779,23.2579 284.1719,23.7959 C283.4709,24.4189 282.6439,24.8849 281.9209,25.4829 C279.7799,27.2559 278.7049,30.2019 279.1239,32.9489 C279.5429,35.6969 281.4129,38.1619 283.9109,39.3789 C286.4099,40.5949 289.4649,40.5569 291.9689,39.3489 C293.9289,41.9249 295.8899,44.5009 297.8509,47.0779 C293.2349,50.3799 287.0539,51.3789 281.6339,49.6979 C276.2139,48.0169 271.6809,43.6959 269.7439,38.3619 C267.8079,33.0279 268.5109,26.8049 271.5899,22.0379 C274.6679,17.2719 280.0509,14.0709 285.7099,13.6429" id="Fill-178" fill="#57C1B6"></path>
                    <path d="M288.6434,14.139 L288.6374,20.168 C288.6364,21.273 288.7194,22.553 289.6154,23.199 C290.4484,23.799 291.8104,23.695 292.2704,24.613 C294.4574,22.439 296.6444,20.266 298.8314,18.092 C296.2214,15.563 292.6584,14.042 289.0254,13.907" id="Fill-180" fill="#57C1B6" opacity="0.8"></path>
                    <path d="M301.1581,20.5184 C298.9451,22.5134 296.8161,24.6014 294.7801,26.7774 C295.7531,27.7574 296.2961,29.1504 296.2441,30.5304 C299.4021,30.5964 302.5641,30.5074 305.7151,30.2644 C305.6481,26.4804 304.0001,22.7484 301.2481,20.1514" id="Fill-182" fill="#57C1B6" opacity="0.6"></path>
                    <path d="M296.1776,33.5726 C295.8666,34.9816 295.2856,36.3306 294.4766,37.5246 C296.9556,39.3166 299.2226,41.4036 301.2106,43.7286 C303.6486,40.8806 305.2356,37.3126 305.7166,33.5946 C302.5556,34.0066 299.3196,33.8306 296.2206,33.0786" id="Fill-184" fill="#57C1B6" opacity="0.4"></path>
                    <path d="M19.8358,152.4305 L19.8168,152.4275 C17.8918,152.1335 15.8338,153.1935 14.9578,154.9325 C14.0808,156.6725 14.4518,158.9575 15.8338,160.3295 C17.2168,161.7025 19.5038,162.0575 21.2368,161.1685 C22.9708,160.2795 24.0168,158.2145 23.7078,156.2905 C23.3988,154.3675 21.7598,152.7335 19.8358,152.4305" id="Fill-186" fill="#57C1B6"></path>
                    <path d="M34.5565,152.4305 L34.5385,152.4275 C32.6135,152.1335 30.5555,153.1935 29.6785,154.9325 C28.8015,156.6725 29.1725,158.9575 30.5555,160.3295 C31.9375,161.7025 34.2255,162.0575 35.9575,161.1685 C37.6915,160.2795 38.7385,158.2145 38.4295,156.2905 C38.1205,154.3675 36.4815,152.7335 34.5565,152.4305" id="Fill-188" fill="#57C1B6"></path>
                    <path d="M53.0389,156.2908 C52.7299,154.3668 51.0909,152.7328 49.1669,152.4308 L49.1479,152.4278 C47.2229,152.1328 45.1649,153.1938 44.2879,154.9328 C43.4119,156.6728 43.7829,158.9578 45.1649,160.3298 C46.5479,161.7028 48.8349,162.0578 50.5679,161.1678 C52.3019,160.2788 53.3479,158.2138 53.0389,156.2908" id="Fill-190" fill="#57C1B6"></path>
                </g>
            </g>
        </g>
    </g>
</svg>